# xmcd CD database file
#
# Track frame offsets:
#	150
#	13622
#	24798
#	36460
#	49984
#	63249
#	110143
#	122677
#	135417
#	146998
#	163666
#	174245
#	189460
#	199201
#	221607
#	232894
#	244485
#	257017
#	269672
#	281579
#
# Disc length: 3965 seconds
#
# Revision: 0
# Processed by: cddbd v1.5.2PL0 Copyright (c) Steve Scherf et al.
# Submitted via: CDex 1.70beta2
#
DISCID=2f0f7b14
DTITLE=Various Artist - Route 66 -The USA Music Story - CD3
DYEAR=2007
DGENRE=Blues
TTITLE0=Nat King Cole Trio - Road 66
TTITLE1=John Lee Hooker - Boom Boom
TTITLE2=Tennessee Ernie Ford - Sixteen Tons
TTITLE3=Robert Johnson - Sweet home Chicaco
TTITLE4=Bessie Smith - Nobody knows you when you're down and out
TTITLE5=Bo Diddley - I'm a man
TTITLE6=Jimmy Reed - Shame shame shame
TTITLE7=Billie Holiday - St. Louis Blues
TTITLE8=Mississippi Fred Mc Dowell - Good morning little school girl
TTITLE9=Muddy Waters - Sad sad day
TTITLE10=Wilbert Harrison - Kansas City
TTITLE11=Arthur Smith - Guitar Boogie
TTITLE12=Buddy Guy - First time I met the blues
TTITLE13=BB King - The thrill is gone
TTITLE14=Jimmy Witherspoon - Trouble in my mind
TTITLE15=Johnny Otis - Willie and the hand jive
TTITLE16=Memphis Slim - Blues for my woman
TTITLE17=Howlin Wolf - I've got a woman
TTITLE18=Lightnin' Hopkins - Lonesome dog
TTITLE19=Screamin' Jay Hawkins - I put a spell on you
EXTD=YEAR: 2007
EXTT0=
EXTT1=
EXTT2=
EXTT3=
EXTT4=
EXTT5=
EXTT6=
EXTT7=
EXTT8=
EXTT9=
EXTT10=
EXTT11=
EXTT12=
EXTT13=
EXTT14=
EXTT15=
EXTT16=
EXTT17=
EXTT18=
EXTT19=
PLAYORDER=
